# xmcd CD database file
#
# Track frame offsets:
#	150
#	12075
#	29716
#	53138
#	69587
#	84093
#	95656
#	107950
#	121030
#	133900
#	149425
#	158890
#	173186
#	187590
#	201550
#	216595
#	230686
#	241727
#	253858
#	269587
#	287309
#	302407
#	315847
#	332575
#	344905
#
# Disc length: 4764 seconds
#
# Revision: 0
# Processed by: cddbd v1.5.1PL2 Copyright (c) Steve Scherf et al.
# Submitted via: Feurio! 1.68 - http://www.feurio.com
#
DISCID=72129a19
DTITLE=Dolly Parton - Queen Of Countrysound CD 1
DYEAR=1900
DGENRE=Country
TTITLE0=Stand By Your Man
TTITLE1=Starting Over Again
TTITLE2=You Are
TTITLE3=Great Pretender
TTITLE4=Downtown
TTITLE5=It's My Time
TTITLE6=Mama, When Your Pray Tonight
TTITLE7=Here You Come Again
TTITLE8=Rose Garden
TTITLE9=I Walk The Line
TTITLE10=Jambalaya
TTITLE11=Harper Valley P.T.A.
TTITLE12=It's All Wrong, But It's All Right
TTITLE13=I Really Got The Feeling
TTITLE14=Country Road
TTITLE15=Heartbreak Express
TTITLE16=Missisippi River
TTITLE17=D.I.V.O.R.C.E.
TTITLE18=Detroit City
TTITLE19=House Of The Rising Sun
TTITLE20=Old Flames Can't Hold A Candle
TTITLE21=The Seeker
TTITLE22=Save The Last Dance For Me
TTITLE23=In The Ghetto
TTITLE24=Rocky Top
EXTD=
EXTT0=
EXTT1=
EXTT2=
EXTT3=
EXTT4=
EXTT5=
EXTT6=
EXTT7=
EXTT8=
EXTT9=
EXTT10=
EXTT11=
EXTT12=
EXTT13=
EXTT14=
EXTT15=
EXTT16=
EXTT17=
EXTT18=
EXTT19=
EXTT20=
EXTT21=
EXTT22=
EXTT23=
EXTT24=
PLAYORDER=
